<?xml version="1.0" standalone="no"?>
<!DOCTYPE svg PUBLIC "-//W3C//DTD SVG 20010904//EN"
 "http://www.w3.org/TR/2001/REC-SVG-20010904/DTD/svg10.dtd">
<svg version="1.0" xmlns="http://www.w3.org/2000/svg"
 width="512.000000pt" height="512.000000pt" viewBox="0 0 512.000000 512.000000"
 preserveAspectRatio="xMidYMid meet">
<metadata>
Created by potrace 1.11, written by Peter Selinger 2001-2013
</metadata>
<g transform="translate(0.000000,512.000000) scale(0.100000,-0.100000)"
fill="#000000" stroke="none">
<path d="M2378 5116 c-1 -2 -34 -6 -73 -10 -38 -3 -97 -10 -130 -16 -33 -6
-76 -13 -95 -16 -75 -12 -300 -74 -395 -109 -174 -64 -379 -166 -510 -253 -78
-52 -180 -125 -190 -137 -5 -6 -17 -16 -27 -21 -24 -13 -166 -144 -236 -217
-157 -162 -319 -387 -426 -589 -70 -131 -177 -403 -201 -508 -2 -8 -12 -53
-23 -100 -20 -82 -30 -137 -37 -190 -2 -14 -6 -43 -9 -65 -18 -130 -25 -416
-12 -530 3 -27 8 -75 11 -105 4 -30 11 -79 17 -109 5 -30 11 -64 13 -75 16
-127 113 -419 202 -605 129 -271 280 -481 519 -718 l153 -152 -114 -141 c-135
-166 -151 -206 -124 -303 11 -43 59 -101 98 -121 44 -23 109 -29 159 -15 43
12 93 52 148 120 12 15 57 70 99 123 43 53 79 96 81 96 2 0 72 -33 156 -74
150 -73 318 -141 388 -157 19 -4 60 -15 90 -24 177 -50 380 -77 615 -80 221
-3 350 8 535 46 121 25 115 24 207 49 130 36 290 100 437 173 l140 70 20 -25
c12 -14 64 -79 118 -144 116 -144 120 -148 183 -169 129 -43 255 35 271 169
11 87 -5 116 -180 325 l-70 83 39 35 c371 325 636 731 776 1186 21 71 41 142
44 158 3 16 12 57 20 91 14 62 27 159 41 288 7 74 7 372 0 440 -29 254 -78
468 -155 672 -224 598 -675 1100 -1241 1382 -52 26 -103 52 -112 57 -94 49
-419 150 -563 174 -16 3 -41 7 -55 10 -14 3 -45 8 -70 11 -25 3 -56 7 -70 10
-27 6 -456 15 -462 10z m377 -471 c97 -10 192 -24 250 -39 6 -1 26 -6 45 -10
299 -66 642 -245 895 -469 387 -344 640 -833 692 -1337 15 -140 7 -487 -12
-542 -2 -7 -7 -31 -10 -53 -21 -148 -92 -367 -170 -525 -36 -74 -36 -74 -30
-30 32 215 25 387 -24 533 l-18 55 44 5 c106 12 137 153 48 211 -49 32 -129
17 -160 -31 l-16 -24 -63 64 c-98 99 -234 166 -376 183 -53 7 -53 7 -58 42 -5
39 -45 122 -77 160 -59 70 -165 115 -259 111 -193 -9 -334 -167 -319 -360 3
-41 0 -56 -9 -57 -7 0 -52 -8 -99 -18 l-86 -17 -64 64 c-93 94 -195 137 -320
137 -64 -1 -165 -24 -210 -49 -51 -30 -129 -102 -160 -149 -24 -38 -39 -50
-58 -51 -28 -1 -44 -2 -191 -13 -317 -23 -574 -98 -743 -218 -27 -20 -29 -20
-49 -2 -11 11 -45 49 -74 85 -58 73 -76 83 -121 64 -23 -10 -39 -30 -63 -79
-30 -60 -32 -72 -27 -133 5 -70 25 -121 71 -182 25 -34 25 -34 7 -70 -51 -99
-99 -329 -101 -475 0 -33 -2 -37 -15 -26 -8 7 -15 16 -15 21 0 5 -16 34 -36
65 -95 149 -218 448 -250 609 -24 120 -36 191 -42 250 -9 93 -9 350 2 450 16
157 69 375 126 521 39 97 142 306 160 324 3 3 11 17 19 31 15 30 160 228 188
257 10 10 43 45 74 78 259 275 653 506 998 585 79 18 85 19 141 31 30 6 66 12
80 13 14 1 59 6 100 10 41 4 76 8 77 9 4 4 253 -3 308 -9z"/>
</g>
</svg>
